<svg width="44" height="44" viewBox="0 0 44 44" fill="none" xmlns="http://www.w3.org/2000/svg">
<path d="M42.25 43.75H1.75C1.35218 43.75 0.970644 43.592 0.68934 43.3107C0.408035 43.0294 0.25 42.6478 0.25 42.25V19.75L19.2947 5.64288C20.0775 5.06302 21.0258 4.75002 22 4.75C22.9742 4.75002 23.9225 5.06302 24.7053 5.64288L43.75 19.75V42.25C43.75 42.6478 43.592 43.0294 43.3107 43.3107C43.0294 43.592 42.6478 43.75 42.25 43.75Z" fill="#7437C4"/>
<path d="M36.25 0.25H10.75C9.50736 0.25 8.5 1.25736 8.5 2.5V38.5C8.5 39.7426 9.50736 40.75 10.75 40.75H36.25C37.4926 40.75 38.5 39.7426 38.5 38.5V2.5C38.5 1.25736 37.4926 0.25 36.25 0.25Z" fill="#C7C7C5"/>
<path d="M33.25 40.75H7.75C7.15326 40.75 6.58097 40.5129 6.15901 40.091C5.73705 39.669 5.5 39.0967 5.5 38.5V2.5C5.5 1.90326 5.73705 1.33097 6.15901 0.90901C6.58097 0.487053 7.15326 0.25 7.75 0.25H28.75L35.5 7V38.5C35.5 39.0967 35.2629 39.669 34.841 40.091C34.419 40.5129 33.8467 40.75 33.25 40.75Z" fill="#E0E0DE"/>
<path d="M28.75 0.25V4.75C28.75 5.34674 28.9871 5.91903 29.409 6.34099C29.831 6.76295 30.4033 7 31 7H35.5L28.75 0.25Z" fill="#F2F2F2"/>
<path d="M25 7.75H22V4.75H19V7.75H16V10.75H19V13.75H22V10.75H25V7.75Z" fill="#8F4DE5"/>
<path d="M9.25 16.75H31.75V18.25H9.25V16.75Z" fill="#CFCFCD"/>
<path d="M9.25 13.75H15.25V15.25H9.25V13.75Z" fill="#CFCFCD"/>
<path d="M19.75 19.75H31.75V21.25H19.75V19.75Z" fill="#CFCFCD"/>
<path d="M9.25 19.75H18.25V21.25H9.25V19.75Z" fill="#CFCFCD"/>
<path d="M9.25 22.75H31.75V24.25H9.25V22.75Z" fill="#CFCFCD"/>
<path d="M25.75 25.75H28V27.25H25.75V25.75Z" fill="#CFCFCD"/>
<path d="M13.75 25.75H24.25V27.25H13.75V25.75Z" fill="#CFCFCD"/>
<path d="M17.5 28.75H26.5V30.25H17.5V28.75Z" fill="#CFCFCD"/>
<path d="M43.75 19.75V42.25C43.7503 42.3922 43.7301 42.5336 43.69 42.67C43.6159 42.924 43.4759 43.1539 43.2843 43.3363C43.0926 43.5188 42.8561 43.6472 42.5988 43.7087C42.4846 43.7364 42.3675 43.7502 42.25 43.75H1.75C1.42563 43.7503 1.1099 43.6454 0.850244 43.451C0.590585 43.2566 0.401013 42.9832 0.310002 42.6719C0.269956 42.5348 0.249751 42.3928 0.250002 42.25V19.75L11.8094 28.1209L13.0263 29.0012L22 35.5L30.9831 28.9956L32.1991 28.1144L43.75 19.75Z" fill="#8F4DE5"/>
<path d="M13.0262 29.0012L1.40312 43.7096C1.14559 43.6483 0.908841 43.5201 0.716868 43.3378C0.524894 43.1556 0.384527 42.9258 0.309998 42.6718L11.8094 28.1208L13.0262 29.0012Z" fill="#6E2DC4"/>
<path d="M43.69 42.6699C43.6159 42.9239 43.4759 43.1538 43.2843 43.3362C43.0926 43.5186 42.8561 43.6471 42.5988 43.7086L30.9832 28.9955L32.1991 28.1143L43.69 42.6699Z" fill="#6E2DC4"/>
<path d="M2.5 25.75H4V27.25H2.5V25.75Z" fill="#A979E8"/>
<path d="M2.5 28.75H4V35.5H2.5V28.75Z" fill="#A979E8"/>
</svg>
