<svg width="44" height="44" viewBox="0 0 44 44" fill="none" xmlns="http://www.w3.org/2000/svg">
<path d="M41.5 9.25H11.5C10.2574 9.25 9.25 10.2574 9.25 11.5V37.75C9.25 38.9926 10.2574 40 11.5 40H41.5C42.7426 40 43.75 38.9926 43.75 37.75V11.5C43.75 10.2574 42.7426 9.25 41.5 9.25Z" fill="#C7C7C5"/>
<path d="M41.5 6.25H11.5C10.2574 6.25 9.25 7.25736 9.25 8.5V34.75C9.25 35.9926 10.2574 37 11.5 37H41.5C42.7426 37 43.75 35.9926 43.75 34.75V8.5C43.75 7.25736 42.7426 6.25 41.5 6.25Z" fill="#CFCFCD"/>
<path d="M41.5 3.25H11.5C10.2574 3.25 9.25 4.25736 9.25 5.5V31.75C9.25 32.9926 10.2574 34 11.5 34H41.5C42.7426 34 43.75 32.9926 43.75 31.75V5.5C43.75 4.25736 42.7426 3.25 41.5 3.25Z" fill="#D6D6D4"/>
<path d="M36.25 34H11.5C10.9033 34 10.331 33.7629 9.90901 33.341C9.48705 32.919 9.25 32.3467 9.25 31.75V5.5C9.25 4.90326 9.48705 4.33097 9.90901 3.90901C10.331 3.48705 10.9033 3.25 11.5 3.25H41.5C42.0967 3.25 42.669 3.48705 43.091 3.90901C43.5129 4.33097 43.75 4.90326 43.75 5.5V26.5L36.25 34Z" fill="#E0E0DE"/>
<path d="M11.5 3.25H41.5C42.0967 3.25 42.669 3.48705 43.091 3.90901C43.5129 4.33097 43.75 4.90326 43.75 5.5V11.5H9.25V5.5C9.25 4.90326 9.48705 4.33097 9.90901 3.90901C10.331 3.48705 10.9033 3.25 11.5 3.25Z" fill="#7C34D9"/>
<path d="M36.25 34V28.75C36.25 28.1533 36.4871 27.581 36.909 27.159C37.331 26.7371 37.9033 26.5 38.5 26.5H43.75L36.25 34Z" fill="#EBEBE9"/>
<path d="M16.75 1.75C16.75 0.921573 16.0784 0.25 15.25 0.25C14.4216 0.25 13.75 0.921573 13.75 1.75V4.75C13.75 5.57843 14.4216 6.25 15.25 6.25C16.0784 6.25 16.75 5.57843 16.75 4.75V1.75Z" fill="#D6D6D4"/>
<path d="M24.25 1.75C24.25 0.921573 23.5784 0.25 22.75 0.25C21.9216 0.25 21.25 0.921573 21.25 1.75V4.75C21.25 5.57843 21.9216 6.25 22.75 6.25C23.5784 6.25 24.25 5.57843 24.25 4.75V1.75Z" fill="#D6D6D4"/>
<path d="M31.75 1.75C31.75 0.921573 31.0784 0.25 30.25 0.25C29.4216 0.25 28.75 0.921573 28.75 1.75V4.75C28.75 5.57843 29.4216 6.25 30.25 6.25C31.0784 6.25 31.75 5.57843 31.75 4.75V1.75Z" fill="#D6D6D4"/>
<path d="M39.25 1.75C39.25 0.921573 38.5784 0.25 37.75 0.25C36.9216 0.25 36.25 0.921573 36.25 1.75V4.75C36.25 5.57843 36.9216 6.25 37.75 6.25C38.5784 6.25 39.25 5.57843 39.25 4.75V1.75Z" fill="#D6D6D4"/>
<path d="M24.25 24.25L19.9758 25.1031C18.1216 22.9838 15.5381 21.6397 12.7385 21.3377C9.93893 21.0357 7.12817 21.7979 4.86473 23.4729C2.60129 25.148 1.05083 27.6132 0.521428 30.3789C-0.00797901 33.1445 0.522412 36.008 2.00722 38.4006C3.49202 40.7931 5.82256 42.5396 8.53577 43.2928C11.249 44.0461 14.1463 43.7511 16.652 42.4664C19.1577 41.1818 21.0884 39.0015 22.0605 36.3588C23.0326 33.716 22.975 30.8043 21.899 28.2022L24.25 24.25Z" fill="#7C34D9"/>
<path d="M18.25 30.25H13.75V25.75H9.25V30.25H4.75V34.75H9.25V39.25H13.75V34.75H18.25V30.25Z" fill="#EBEBE9"/>
<path d="M19.75 15.25H21.25V16.75H19.75V15.25Z" fill="#4B178F"/>
<path d="M13.75 15.25H15.25V16.75H13.75V15.25Z" fill="#4B178F"/>
<path d="M31.75 15.25H33.25V16.75H31.75V15.25Z" fill="#4B178F"/>
<path d="M37.75 15.25H39.25V16.75H37.75V15.25Z" fill="#4B178F"/>
<path d="M25.75 15.25H27.25V16.75H25.75V15.25Z" fill="#4B178F"/>
<path d="M19.75 21.25H21.25V22.75H19.75V21.25Z" fill="#4B178F"/>
<path d="M31.75 21.25H33.25V22.75H31.75V21.25Z" fill="#4B178F"/>
<path d="M37.75 21.25H39.25V22.75H37.75V21.25Z" fill="#4B178F"/>
<path d="M25.75 21.25H27.25V22.75H25.75V21.25Z" fill="#4B178F"/>
<path d="M31.75 27.25H33.25V28.75H31.75V27.25Z" fill="#4B178F"/>
<path d="M25.75 27.25H27.25V28.75H25.75V27.25Z" fill="#4B178F"/>
</svg>
