<svg width="48" height="48" viewBox="0 0 48 48" fill="none" xmlns="http://www.w3.org/2000/svg">
<path d="M9 9.75C9 11.4069 10.3431 12.75 12 12.75C13.6569 12.75 15 11.4069 15 9.75V7.5C15 5.84315 13.6569 4.5 12 4.5C10.3431 4.5 9 5.84315 9 7.5V9.75Z" fill="#FEC9A3"/>
<path d="M5.25 23.25H15.75V18L17.25 23.25H21L19.3181 15.0224C19.1559 14.3733 18.7813 13.7971 18.2539 13.3854C17.7266 12.9736 17.0767 12.75 16.4077 12.75H8.25C7.45435 12.75 6.69129 13.0661 6.12868 13.6287C5.56607 14.1913 5.25 14.9544 5.25 15.75V23.25Z" fill="#AF8FD9"/>
<path d="M15.75 15.75H8.25V23.25H15.75V20.25C16.0455 19.9545 16.2799 19.6037 16.4398 19.2177C16.5997 18.8316 16.682 18.4179 16.682 18C16.682 17.5821 16.5997 17.1684 16.4398 16.7823C16.2799 16.3963 16.0455 16.0455 15.75 15.75Z" fill="#AF8FD9"/>
<path d="M8.625 7.5C9.66053 7.5 10.5 6.66053 10.5 5.625C10.5 4.58947 9.66053 3.75 8.625 3.75C7.58947 3.75 6.75 4.58947 6.75 5.625C6.75 6.66053 7.58947 7.5 8.625 7.5Z" fill="#78462F"/>
<path d="M9 9.75L11.25 7.5C12.2365 7.99322 13.3242 8.25 14.4271 8.25H15V7.5C15 6.70435 14.6839 5.94129 14.1213 5.37868C13.5587 4.81607 12.7956 4.5 12 4.5C11.2044 4.5 10.4413 4.81607 9.87868 5.37868C9.31607 5.94129 9 6.70435 9 7.5V9.75Z" fill="#92563A"/>
<path d="M9.75 12.75L12.75 17.25L15 12.75H9.75Z" fill="#7C34D9"/>
<path d="M24.75 18H21L18.75 23.25H22.5L24.75 18Z" fill="#AF8FD9"/>
<path d="M27.75 15H23.8906C23.4727 15 23.0632 15.1164 22.7077 15.336C22.3523 15.5557 22.065 15.87 21.8782 16.2438L21 18H24.8594C25.2773 18 25.6868 17.8836 26.0423 17.664C26.3977 17.4443 26.685 17.13 26.8718 16.7562L27.75 15Z" fill="#FEC9A3"/>
<path d="M2.25 23.25H35.25V42.75H2.25V23.25Z" fill="#7C34D9"/>
<path d="M2.25 23.25H35.25V26.25H2.25V23.25Z" fill="#8B45E6"/>
<path d="M4.5 29.25H6V30.75H4.5V29.25Z" fill="#8B45E6"/>
<path d="M4.5 32.25H6V38.25H4.5V32.25Z" fill="#8B45E6"/>
<path d="M23.25 33H20.25V30H17.25V33H14.25V36H17.25V39H20.25V36H23.25V33Z" fill="#E0E0DE"/>
<path d="M2.25 26.25H35.25V27.75H2.25V26.25Z" fill="#7430CD"/>
<path d="M42 12C42 10.3431 40.6569 9 39 9C37.3431 9 36 10.3431 36 12V14.25C36 15.9069 37.3431 17.25 39 17.25C40.6569 17.25 42 15.9069 42 14.25V12Z" fill="#FEC9A3"/>
<path d="M35.25 42.75H39V45.75H35.25C34.8522 45.75 34.4706 45.592 34.1893 45.3107C33.908 45.0294 33.75 44.6478 33.75 44.25C33.75 43.8522 33.908 43.4706 34.1893 43.1893C34.4706 42.908 34.8522 42.75 35.25 42.75Z" fill="#53347B"/>
<path d="M39 42.75H42.75V45.75H39V42.75Z" fill="#2B4266"/>
<path d="M42 14.25H39L36.75 12H36C35.6022 12 35.2206 11.842 34.9393 11.5607C34.658 11.2794 34.5 10.8978 34.5 10.5C34.5 10.1022 34.658 9.72064 34.9393 9.43934C35.2206 9.15804 35.6022 9 36 9H39C39.7956 9 40.5587 9.31607 41.1213 9.87868C41.6839 10.4413 42 11.2044 42 12V14.25Z" fill="#92563A"/>
<path d="M35.25 29.25H42.75V42.75H35.25V29.25Z" fill="#92563A"/>
<path d="M38.25 31.0911H39.75V42.7501H38.25V31.0911Z" fill="#78462F"/>
<path d="M35.25 29.25H42.75L45.75 29.2812V20.25C45.75 19.4544 45.4339 18.6913 44.8713 18.1287C44.3087 17.5661 43.5456 17.25 42.75 17.25H35.25C34.4544 17.25 33.6913 17.5661 33.1287 18.1287C32.5661 18.6913 32.25 19.4544 32.25 20.25V29.25H35.25Z" fill="#FFB531"/>
<path d="M34.5 20.25H36V29.25H34.5V20.25Z" fill="#FAA50F"/>
<path d="M42 20.25H43.5V29.25H42V20.25Z" fill="#FAA50F"/>
<path d="M32.25 29.25H35.25V32.25H32.25V29.25Z" fill="#FEC9A3"/>
<path d="M42.75 29.25H45.75V32.25H42.75V29.25Z" fill="#FEC9A3"/>
<path d="M29.25 12H23.25C22.8522 12 22.4706 11.842 22.1893 11.5607C21.908 11.2794 21.75 10.8978 21.75 10.5V9L19.5 7.5L21.75 6V3.75C21.75 3.35218 21.908 2.97064 22.1893 2.68934C22.4706 2.40804 22.8522 2.25 23.25 2.25H29.25C29.6478 2.25 30.0294 2.40804 30.3107 2.68934C30.592 2.97064 30.75 3.35218 30.75 3.75V10.5C30.75 10.8978 30.592 11.2794 30.3107 11.5607C30.0294 11.842 29.6478 12 29.25 12Z" fill="#AF8FD9"/>
<path d="M25.5 7.5H27V9.75H25.5V7.5Z" fill="#CEB7EB"/>
<path d="M25.5 4.5H27V6H25.5V4.5Z" fill="#CEB7EB"/>
<path d="M16.5 23.2501H15V20.2501C15 20.1516 15.0194 20.054 15.0571 19.9631C15.0948 19.8721 15.15 19.7894 15.2197 19.7197C15.6757 19.2636 15.932 18.6451 15.932 18.0001C15.932 17.3551 15.6757 16.7365 15.2197 16.2804L16.2803 15.2197C16.977 15.9181 17.3861 16.8525 17.4268 17.8381C17.4674 18.8237 17.1367 19.7886 16.5 20.542V23.2501Z" fill="#9876C4"/>
<path d="M7.5 15.75H9V23.25H7.5V15.75Z" fill="#9876C4"/>
</svg>
