<svg width="48" height="50" viewBox="0 0 48 50" fill="none" xmlns="http://www.w3.org/2000/svg">
<circle cx="24.0002" cy="25.0001" r="13.3333" fill="#7839C1" stroke="#7839C1" stroke-width="0.875"/>
<path d="M22.945 1.65502C23.5911 1.25386 24.4089 1.25386 25.055 1.65502L34.2 7.33308L43.6899 12.4139C44.3603 12.7728 44.7692 13.481 44.7448 14.2411L44.4 25L44.7448 35.7589C44.7692 36.519 44.3603 37.2272 43.6899 37.5861L34.2 42.6669L25.055 48.345C24.4089 48.7461 23.5911 48.7461 22.945 48.345L13.8 42.6669L4.31014 37.5861C3.63967 37.2272 3.23081 36.519 3.25517 35.7589L3.6 25L3.25517 14.2411C3.23081 13.481 3.63967 12.7728 4.31014 12.4139L13.8 7.33308L22.945 1.65502Z" stroke="#7839C1"/>
<path d="M24.0006 22.3336C25.4733 22.3336 26.6672 21.1397 26.6672 19.6669C26.6672 18.1942 25.4733 17.0002 24.0006 17.0002C22.5278 17.0002 21.3339 18.1942 21.3339 19.6669C21.3339 21.1397 22.5278 22.3336 24.0006 22.3336Z" fill="white"/>
<path d="M20.5892 23.6669C19.4414 23.6669 18.4224 24.4014 18.0594 25.4903L17.1705 28.157C16.595 29.8837 17.8802 31.6669 19.7004 31.6669H28.3008C30.1209 31.6669 31.4062 29.8837 30.8306 28.157L29.9417 25.4903C29.5787 24.4014 28.5597 23.6669 27.4119 23.6669H20.5892Z" fill="white"/>
</svg>
