<svg width="69" height="68" viewBox="0 0 69 68" fill="none" xmlns="http://www.w3.org/2000/svg">
<rect x="0.5" width="68" height="68" rx="12" fill="#121212"/>
<path d="M45.75 16L41.25 12.25H32.25C32.25 13.2446 32.6451 14.1984 33.3483 14.9017C34.0516 15.6049 35.0054 16 36 16H24.75C24.3522 16 23.9706 16.158 23.6893 16.4393C23.408 16.7206 23.25 17.1022 23.25 17.5C23.25 17.8978 23.408 18.2794 23.6893 18.5607C23.9706 18.842 24.3522 19 24.75 19C24.3522 19 23.9706 19.158 23.6893 19.4393C23.408 19.7206 23.25 20.1022 23.25 20.5C23.25 20.8978 23.408 21.2794 23.6893 21.5607C23.9706 21.842 24.3522 22 24.75 22C24.3522 22 23.9706 22.158 23.6893 22.4393C23.408 22.7206 23.25 23.1022 23.25 23.5C23.25 23.8978 23.408 24.2794 23.6893 24.5607C23.9706 24.842 24.3522 25 24.75 25C24.3522 25 23.9706 25.158 23.6893 25.4393C23.408 25.7206 23.25 26.1022 23.25 26.5C23.25 26.8978 23.408 27.2794 23.6893 27.5607C23.9706 27.842 24.3522 28 24.75 28H51.75V16H45.75Z" fill="#8F4DE5"/>
<path d="M33.75 24.25H24.75C24.3358 24.25 24 24.5858 24 25C24 25.4142 24.3358 25.75 24.75 25.75H33.75C34.1642 25.75 34.5 25.4142 34.5 25C34.5 24.5858 34.1642 24.25 33.75 24.25Z" fill="#7D3BD4"/>
<path d="M33.75 21.25H24.75C24.3358 21.25 24 21.5858 24 22C24 22.4142 24.3358 22.75 24.75 22.75H33.75C34.1642 22.75 34.5 22.4142 34.5 22C34.5 21.5858 34.1642 21.25 33.75 21.25Z" fill="#7D3BD4"/>
<path d="M33.75 18.25H24.75C24.3358 18.25 24 18.5858 24 19C24 19.4142 24.3358 19.75 24.75 19.75H33.75C34.1642 19.75 34.5 19.4142 34.5 19C34.5 18.5858 34.1642 18.25 33.75 18.25Z" fill="#7D3BD4"/>
<path d="M42.0007 22C41.8683 22.0001 41.7383 21.9652 41.6238 21.8988C41.5093 21.8324 41.4145 21.7369 41.3488 21.622L38.5647 16.75H36C35.8011 16.75 35.6103 16.671 35.4697 16.5303C35.329 16.3897 35.25 16.1989 35.25 16C35.25 15.8011 35.329 15.6103 35.4697 15.4697C35.6103 15.329 35.8011 15.25 36 15.25H39C39.1322 15.25 39.2621 15.285 39.3765 15.3513C39.4908 15.4177 39.5856 15.5131 39.6512 15.6279L42.6512 20.8779C42.7163 20.9919 42.7504 21.121 42.75 21.2523C42.7496 21.3837 42.7147 21.5126 42.6488 21.6262C42.583 21.7398 42.4885 21.8341 42.3747 21.8997C42.2609 21.9653 42.132 21.9999 42.0007 22Z" fill="#7D3BD4"/>
<path d="M51.75 16.75H57V27.25H51.75V16.75Z" fill="#FEC9A3"/>
<path d="M48 18.25H49.5V28H48V18.25Z" fill="#7D3BD4"/>
<path d="M57 37H55.5V35.5C55.4995 35.1023 55.3413 34.7211 55.0601 34.4399C54.7789 34.1587 54.3977 34.0005 54 34H15C14.6023 34.0005 14.2211 34.1587 13.9399 34.4399C13.6587 34.7211 13.5005 35.1023 13.5 35.5V37H12V35.5C12.0009 34.7046 12.3173 33.9421 12.8797 33.3797C13.4421 32.8173 14.2046 32.5009 15 32.5H54C54.7954 32.5009 55.5579 32.8173 56.1203 33.3797C56.6827 33.9421 56.9991 34.7046 57 35.5V37Z" fill="#E0E0DE"/>
<path d="M46.5 34H52.5V49.75C52.5 50.5456 52.1839 51.3087 51.6213 51.8713C51.0587 52.4339 50.2956 52.75 49.5 52.75C48.7044 52.75 47.9413 52.4339 47.3787 51.8713C46.8161 51.3087 46.5 50.5456 46.5 49.75V34Z" fill="#BEA0E5"/>
<path d="M49.5 37C51.1569 37 52.5 35.6569 52.5 34C52.5 32.3431 51.1569 31 49.5 31C47.8431 31 46.5 32.3431 46.5 34C46.5 35.6569 47.8431 37 49.5 37Z" fill="#AF8FD9"/>
<path d="M46.5 44.5H52.5V49.75C52.5 50.5456 52.1839 51.3087 51.6213 51.8713C51.0587 52.4339 50.2956 52.75 49.5 52.75C48.7044 52.75 47.9413 52.4339 47.3787 51.8713C46.8161 51.3087 46.5 50.5456 46.5 49.75V44.5Z" fill="#D75246"/>
<path d="M36.75 34H42.75V49.75C42.75 50.5456 42.4339 51.3087 41.8713 51.8713C41.3087 52.4339 40.5456 52.75 39.75 52.75C38.9544 52.75 38.1913 52.4339 37.6287 51.8713C37.0661 51.3087 36.75 50.5456 36.75 49.75V34Z" fill="#BEA0E5"/>
<path d="M39.75 37C41.4069 37 42.75 35.6569 42.75 34C42.75 32.3431 41.4069 31 39.75 31C38.0931 31 36.75 32.3431 36.75 34C36.75 35.6569 38.0931 37 39.75 37Z" fill="#AF8FD9"/>
<path d="M36.75 44.5H42.75V49.75C42.75 50.5456 42.4339 51.3087 41.8713 51.8713C41.3087 52.4339 40.5456 52.75 39.75 52.75C38.9544 52.75 38.1913 52.4339 37.6287 51.8713C37.0661 51.3087 36.75 50.5456 36.75 49.75V44.5Z" fill="#D75246"/>
<path d="M26.25 34H32.25V49.75C32.25 50.5456 31.9339 51.3087 31.3713 51.8713C30.8087 52.4339 30.0456 52.75 29.25 52.75C28.4544 52.75 27.6913 52.4339 27.1287 51.8713C26.5661 51.3087 26.25 50.5456 26.25 49.75V34Z" fill="#BEA0E5"/>
<path d="M29.25 37C30.9069 37 32.25 35.6569 32.25 34C32.25 32.3431 30.9069 31 29.25 31C27.5931 31 26.25 32.3431 26.25 34C26.25 35.6569 27.5931 37 29.25 37Z" fill="#AF8FD9"/>
<path d="M26.25 44.5H32.25V49.75C32.25 50.5456 31.9339 51.3087 31.3713 51.8713C30.8087 52.4339 30.0456 52.75 29.25 52.75C28.4544 52.75 27.6913 52.4339 27.1287 51.8713C26.5661 51.3087 26.25 50.5456 26.25 49.75V44.5Z" fill="#D75246"/>
<path d="M16.5 34H22.5V49.75C22.5 50.5456 22.1839 51.3087 21.6213 51.8713C21.0587 52.4339 20.2956 52.75 19.5 52.75C18.7044 52.75 17.9413 52.4339 17.3787 51.8713C16.8161 51.3087 16.5 50.5456 16.5 49.75V34Z" fill="#BEA0E5"/>
<path d="M19.5 37C21.1569 37 22.5 35.6569 22.5 34C22.5 32.3431 21.1569 31 19.5 31C17.8431 31 16.5 32.3431 16.5 34C16.5 35.6569 17.8431 37 19.5 37Z" fill="#AF8FD9"/>
<path d="M16.5 44.5H22.5V49.75C22.5 50.5456 22.1839 51.3087 21.6213 51.8713C21.0587 52.4339 20.2956 52.75 19.5 52.75C18.7044 52.75 17.9413 52.4339 17.3787 51.8713C16.8161 51.3087 16.5 50.5456 16.5 49.75V44.5Z" fill="#D75246"/>
<path d="M55.5 37V38.5C55.4995 38.8977 55.3413 39.2789 55.0601 39.5601C54.7789 39.8413 54.3977 39.9995 54 40H15C14.6023 39.9995 14.2211 39.8413 13.9399 39.5601C13.6587 39.2789 13.5005 38.8977 13.5 38.5V37H12V53.5C12.0009 54.2954 12.3173 55.0579 12.8797 55.6203C13.4421 56.1827 14.2046 56.4991 15 56.5H54C54.7954 56.4991 55.5579 56.1827 56.1203 55.6203C56.6827 55.0579 56.9991 54.2954 57 53.5V37H55.5ZM54 55H15C14.6023 54.9995 14.2211 54.8413 13.9399 54.5601C13.6587 54.2789 13.5005 53.8977 13.5 53.5V48.5969C13.9556 48.8615 14.4732 49.0006 15 49H54C54.5269 49.0004 55.0445 48.8612 55.5 48.5964V53.5C55.4995 53.8977 55.3413 54.2789 55.0601 54.5601C54.7789 54.8413 54.3977 54.9995 54 55ZM55.5 46C55.4995 46.3977 55.3413 46.7789 55.0601 47.0601C54.7789 47.3413 54.3977 47.4995 54 47.5H15C14.6023 47.4995 14.2211 47.3413 13.9399 47.0601C13.6587 46.7789 13.5005 46.3977 13.5 46V41.0969C13.9556 41.3615 14.4732 41.5006 15 41.5H54C54.5269 41.5004 55.0445 41.3612 55.5 41.0964V46Z" fill="#E0E0DE"/>
<path d="M22.5 26.5L20.25 27.25L19.5 26.5L20.25 24.25L27.75 16.75L30 19L22.5 26.5Z" fill="#D6D6D4"/>
<path d="M24 20.5L26.25 22.75L22.5 26.5L20.25 27.25L19.5 26.5L20.25 24.25L24 20.5Z" fill="#D75246"/>
<path d="M27.1771 16.1771L30.5729 19.5729C30.6947 19.6947 30.8392 19.7913 30.9983 19.8572C31.1573 19.923 31.3278 19.957 31.5 19.957C31.6722 19.957 31.8427 19.923 32.0018 19.8572C32.1608 19.7913 32.3054 19.6947 32.4271 19.5729C32.5993 19.4007 32.7201 19.1841 32.776 18.9471C32.8319 18.7102 32.8208 18.4623 32.7438 18.2313L32.25 16.75L34.034 14.966C34.3324 14.6677 34.5 14.263 34.5 13.841C34.5 13.4191 34.3324 13.0144 34.034 12.716C33.7356 12.4176 33.3309 12.25 32.909 12.25C32.487 12.25 32.0823 12.4177 31.784 12.716L30 14.5L28.5188 14.0062C28.2878 13.9292 28.0399 13.9181 27.803 13.974C27.566 14.0299 27.3494 14.1508 27.1772 14.3229C27.0554 14.4446 26.9588 14.5892 26.8929 14.7482C26.827 14.9073 26.7931 15.0778 26.7931 15.25C26.7931 15.4222 26.827 15.5927 26.8929 15.7517C26.9588 15.9108 27.0554 16.0553 27.1771 16.1771Z" fill="#7C34D9"/>
<path d="M18 31C18 31.3978 18.158 31.7794 18.4393 32.0607C18.7206 32.342 19.1022 32.5 19.5 32.5C19.8978 32.5 20.2794 32.342 20.5607 32.0607C20.842 31.7794 21 31.3978 21 31C21 30.5068 20.8852 30.0203 20.6646 29.5792L19.5 27.25L18.3354 29.5792C18.1148 30.0203 18 30.5068 18 31Z" fill="#D75246"/>
<path d="M21.75 15.25H20.25C20.2511 14.2558 20.6466 13.3026 21.3496 12.5996C22.0526 11.8966 23.0058 11.5011 24 11.5V13C23.4035 13.0007 22.8316 13.2379 22.4097 13.6597C21.9879 14.0816 21.7507 14.6535 21.75 15.25Z" fill="#E0E0DE"/>
</svg>
