<svg width="68" height="68" viewBox="0 0 68 68" fill="none" xmlns="http://www.w3.org/2000/svg">
<path fill-rule="evenodd" clip-rule="evenodd" d="M10.0078 34C10.0078 20.938 20.9244 10.0039 33.9922 10C47.0678 9.99217 58 20.9458 58 34C58 47.066 47.0717 57.9843 33.9922 57.9765C30.3481 57.9828 26.7508 57.1558 23.4753 55.5585L10 57.9961L14.0242 47.2894C11.409 43.3504 10.0121 38.7282 10.0078 34ZM44.3014 43.3743C41.9425 45.1339 38.561 46.6506 35.3127 44.5656C30.7321 41.6264 26.6805 37.7583 23.7378 33.177C22.0999 30.6257 23.4831 26.6166 25.7087 23.9791C26.8333 22.6466 28.7886 22.8426 30.0777 24.0183L33.134 26.8086C32.0957 27.8472 30.7595 30.5983 31.9429 32.4402C32.9695 34.047 34.2429 35.6225 37.2679 36.5434C38.6785 36.9745 40.7043 36.4572 41.7427 35.4187L44.4856 38.3383C45.8727 39.8197 45.9275 42.1594 44.3014 43.3743Z" fill="#B57CFC"/>
<path d="M35.3127 44.5699C38.561 46.6509 41.9425 45.1342 44.3014 43.3746C45.9275 42.1597 45.8766 39.82 44.4856 38.3387L41.7427 35.419C40.7043 36.4575 38.6746 36.9748 37.2679 36.5438C34.2429 35.6228 32.9695 34.0474 31.9389 32.4406C30.7595 30.5986 32.0957 27.8475 33.134 26.8089L30.0777 24.0186C28.7886 22.8429 26.8333 22.647 25.7087 23.9794C23.4831 26.6169 22.1038 30.6261 23.7378 33.1773C26.6766 37.7587 30.7321 41.6306 35.3127 44.5699Z" fill="white"/>
<path d="M35.3127 44.5699C38.561 46.6509 41.9425 45.1342 44.3014 43.3746C45.9275 42.1597 45.8766 39.82 44.4856 38.3387L41.7427 35.419C40.7043 36.4575 38.6746 36.9748 37.2679 36.5438C34.2429 35.6228 32.9695 34.0474 31.9389 32.4406C30.7595 30.5986 32.0957 27.8475 33.134 26.8089L30.0777 24.0186C28.7886 22.8429 26.8333 22.647 25.7087 23.9794C23.4831 26.6169 22.1038 30.6261 23.7378 33.1773C26.6766 37.7587 30.7321 41.6306 35.3127 44.5699Z" stroke="#7839C1" stroke-linecap="round" stroke-linejoin="round"/>
<path d="M33.9922 10.0039C20.9244 10.0039 10.0118 20.938 10.0118 33.9961C10.0168 38.723 11.4137 43.3437 14.0281 47.2815L10 58L23.4753 55.5624C26.7511 57.1583 30.3484 57.9841 33.9922 57.9765C47.0717 57.9843 58 47.066 58 34C58 20.9497 47.0678 9.99609 33.9922 10.0039Z" stroke="#7839C1" stroke-linecap="round" stroke-linejoin="round"/>
</svg>
