<svg width="50" height="50" viewBox="0 0 50 50" fill="none" xmlns="http://www.w3.org/2000/svg">
<path d="M22.3205 12.8637C21.8563 13.3279 21.8563 14.0751 21.8563 15.5694V16.1106C20.7432 16.504 19.7253 17.0987 18.8462 17.851L18.3218 17.5483C17.0277 16.8011 16.3806 16.4275 15.7464 16.5974C15.1123 16.7674 14.7387 17.4144 13.9915 18.7086C13.2443 20.0028 12.8707 20.6498 13.0406 21.284C13.2106 21.9182 13.8576 22.2918 15.1518 23.0389L15.6748 23.3409C15.5706 23.9046 15.5162 24.4857 15.5162 25.0795C15.5162 25.6734 15.5706 26.2545 15.6748 26.8182L15.2053 27.0893C13.9111 27.8364 13.264 28.21 13.0941 28.8442C12.9242 29.4784 13.2978 30.1254 14.045 31.4196C14.7922 32.7138 15.1658 33.3608 15.7999 33.5308C16.4341 33.7007 17.0812 33.3271 18.3753 32.5799L18.8462 32.3081C19.7253 33.0604 20.7432 33.6551 21.8563 34.0485V34.5896C21.8563 36.084 21.8563 36.8312 22.3205 37.2954C22.7847 37.7597 23.5319 37.7597 25.0263 37.7597C26.5207 37.7597 27.2678 37.7597 27.7321 37.2954C28.1963 36.8312 28.1963 36.084 28.1963 34.5896V34.0485C29.3094 33.6551 30.3273 33.0604 31.2064 32.3081L31.6238 32.549C32.9179 33.2962 33.565 33.6698 34.1992 33.4999C34.8333 33.33 35.2069 32.6829 35.9541 31.3887C36.7013 30.0946 37.0749 29.4475 36.905 28.8133C36.735 28.1792 36.088 27.8056 34.7938 27.0584L34.3778 26.8182C34.482 26.2545 34.5364 25.6734 34.5364 25.0795C34.5364 24.4857 34.482 23.9046 34.3778 23.3409L34.8483 23.0692C36.1425 22.322 36.7896 21.9484 36.9595 21.3143C37.1294 20.6801 36.7558 20.033 36.0086 18.7389C35.2615 17.4447 34.8879 16.7976 34.2537 16.6277C33.6195 16.4578 32.9725 16.8314 31.6783 17.5786L31.2064 17.851C30.3273 17.0987 29.3094 16.504 28.1963 16.1106V15.5694C28.1963 14.0751 28.1963 13.3279 27.7321 12.8637C27.2678 12.3994 26.5207 12.3994 25.0263 12.3994C23.5319 12.3994 22.7847 12.3994 22.3205 12.8637Z" fill="white" stroke="#7839C1" stroke-width="0.875" stroke-linejoin="round"/>
<path d="M1.72429 10H6.94001C6.97314 10 7 10.0269 7 10.06V15.2757C7 15.543 6.67686 15.6768 6.48788 15.4878L1.51216 10.5121C1.32317 10.3231 1.45702 10 1.72429 10Z" fill="#7839C1"/>
<path d="M8.02944 41.9704L7.67589 42.324L8.02944 41.9704ZM37.2499 46.2175C37.489 46.0794 37.5709 45.7736 37.4329 45.5344C37.2948 45.2953 36.989 45.2134 36.7499 45.3514L37.2499 46.2175ZM1.51216 10.5121L1.86572 10.1586L1.51216 10.5121ZM6.48788 15.4878L6.13432 15.8414L6.48788 15.4878ZM4.21541 13L3.7824 12.75C1.08576 17.4207 0.00567174 22.8507 0.709634 28.1978L1.20536 28.1325L1.70108 28.0673C1.02585 22.9384 2.06186 17.73 4.64842 13.25L4.21541 13ZM1.20536 28.1325L0.709634 28.1978C1.4136 33.5449 3.86227 38.5104 7.67589 42.324L8.02944 41.9704L8.38299 41.6169C4.72504 37.9589 2.37631 33.1962 1.70108 28.0673L1.20536 28.1325ZM8.02944 41.9704L7.67589 42.324C11.4895 46.1376 16.4549 48.5863 21.802 49.2902L21.8673 48.7945L21.9326 48.2988C16.8037 47.6235 12.0409 45.2748 8.38299 41.6169L8.02944 41.9704ZM21.8673 48.7945L21.802 49.2902C27.1492 49.9942 32.5792 48.9141 37.2499 46.2175L36.9999 45.7844L36.7499 45.3514C32.2698 47.938 27.0614 48.974 21.9326 48.2988L21.8673 48.7945ZM6.94001 10V9.5H1.72429V10V10.5H6.94001V10ZM7 15.2757H7.5V10.06H7H6.5V15.2757H7ZM6.48788 15.4878L6.13432 15.8414C6.63829 16.3454 7.5 15.9884 7.5 15.2757H7H6.5C6.5 15.0975 6.71543 15.0083 6.84143 15.1343L6.48788 15.4878ZM1.72429 10V9.5C1.01157 9.5 0.654639 10.3617 1.15861 10.8657L1.51216 10.5121L1.86572 10.1586C1.99171 10.2846 1.90248 10.5 1.72429 10.5V10ZM6.94001 10V10.5C6.697 10.5 6.5 10.303 6.5 10.06H7H7.5C7.5 9.75072 7.24928 9.5 6.94001 9.5V10ZM1.51216 10.5121L1.15861 10.8657L6.13432 15.8414L6.48788 15.4878L6.84143 15.1343L1.86572 10.1586L1.51216 10.5121Z" fill="#7839C1"/>
<path d="M48.2757 39.9999H43.06C43.0268 39.9999 43 39.973 43 39.9398V34.7241C43 34.4569 43.3231 34.323 43.5121 34.512L48.4878 39.4877C48.6768 39.6767 48.543 39.9999 48.2757 39.9999Z" fill="#7839C1"/>
<path d="M48.7946 21.8673L49.2904 21.802L48.7946 21.8673ZM41.9705 8.02944L41.617 8.38299L41.9705 8.02944ZM28.1327 1.20536L28.0674 1.70108L28.1327 1.20536ZM12.7501 3.7824C12.511 3.92047 12.429 4.22626 12.5671 4.46541C12.7052 4.70456 13.011 4.78649 13.2501 4.64842L12.7501 3.7824ZM48.4878 39.4877L48.1343 39.8413L48.4878 39.4877ZM43.5121 34.512L43.8657 34.1585L43.5121 34.512ZM45.7846 36.9999L46.2176 37.2499C48.9142 32.5792 49.9943 27.1492 49.2904 21.802L48.7946 21.8673L48.2989 21.9326C48.9741 27.0614 47.9381 32.2698 45.3516 36.7499L45.7846 36.9999ZM48.7946 21.8673L49.2904 21.802C48.5864 16.4549 46.1377 11.4895 42.3241 7.67588L41.9705 8.02944L41.617 8.38299C45.2749 12.0409 47.6237 16.8037 48.2989 21.9326L48.7946 21.8673ZM41.9705 8.02944L42.3241 7.67588C38.5105 3.86227 33.5451 1.4136 28.1979 0.709634L28.1327 1.20536L28.0674 1.70108C33.1963 2.37631 37.959 4.72504 41.617 8.38299L41.9705 8.02944ZM28.1327 1.20536L28.1979 0.709634C22.8508 0.00567174 17.4208 1.08576 12.7501 3.7824L13.0001 4.21541L13.2501 4.64842C17.7302 2.06186 22.9385 1.02585 28.0674 1.70108L28.1327 1.20536ZM43.06 39.9999V40.4999H48.2757V39.9999V39.4999H43.06V39.9999ZM43 34.7241H42.5V39.9398H43H43.5V34.7241H43ZM43.5121 34.512L43.8657 34.1585C43.3617 33.6545 42.5 34.0114 42.5 34.7241H43H43.5C43.5 34.9023 43.2845 34.9916 43.1586 34.8656L43.5121 34.512ZM48.2757 39.9999V40.4999C48.9884 40.4999 49.3453 39.6381 48.8414 39.1342L48.4878 39.4877L48.1343 39.8413C48.0083 39.7153 48.0975 39.4999 48.2757 39.4999V39.9999ZM43.06 39.9999V39.4999C43.303 39.4999 43.5 39.6968 43.5 39.9398H43H42.5C42.5 40.2491 42.7507 40.4999 43.06 40.4999V39.9999ZM48.4878 39.4877L48.8414 39.1342L43.8657 34.1585L43.5121 34.512L43.1586 34.8656L48.1343 39.8413L48.4878 39.4877Z" fill="#7839C1"/>
</svg>
