<svg width="1436" height="772" viewBox="0 0 1436 772" fill="none" xmlns="http://www.w3.org/2000/svg">
<path d="M1175.96 705.779L1044.47 769.542L1044.47 769.549L912.991 705.779L1044.47 642.008L1175.96 705.779Z" stroke="#C59CFF" stroke-opacity="0.01" stroke-width="2" stroke-miterlimit="10"/>
<path d="M1435.97 705.778L1304.49 769.541L1304.49 769.549L1173 705.778L1304.49 642.008L1435.97 705.778Z" stroke="#C59CFF" stroke-opacity="0.01" stroke-width="2" stroke-miterlimit="10"/>
<path d="M915.958 705.778L784.474 769.541L784.474 769.549L652.99 705.778L784.474 642.008L915.958 705.778Z" stroke="#C59CFF" stroke-opacity="0.01" stroke-width="2" stroke-miterlimit="10"/>
<path d="M655.965 705.774L524.481 769.537L524.481 769.544L392.997 705.774L524.481 642.003L655.965 705.774Z" stroke="#C59CFF" stroke-opacity="0.01" stroke-width="2" stroke-miterlimit="10"/>
<path d="M392.452 705.774L260.968 769.537L260.968 769.544L129.484 705.774L260.968 642.003L392.452 705.774Z" stroke="#C59CFF" stroke-opacity="0.01" stroke-width="2" stroke-miterlimit="10"/>
<path d="M525.956 385.751L394.472 449.514L394.472 449.522L262.988 385.751L394.472 321.981L525.956 385.751Z" stroke="#C59CFF" stroke-opacity="0.01" stroke-width="2" stroke-miterlimit="10"/>
<path d="M525.957 385.751L525.957 513.277L394.473 577.039L394.473 449.514L525.957 385.751Z" stroke="#C59CFF" stroke-opacity="0.01" stroke-width="2" stroke-miterlimit="10"/>
<path d="M394.472 449.521L394.472 577.039L262.988 513.277L262.988 385.751L394.472 449.521Z" stroke="#C59CFF" stroke-opacity="0.01" stroke-width="2" stroke-miterlimit="10"/>
<path d="M394.472 577.047L394.472 704.573L262.988 640.81L262.988 513.284L394.472 577.047Z" stroke="#C59CFF" stroke-opacity="0.01" stroke-width="2" stroke-miterlimit="10"/>
<path d="M785.955 385.76L654.471 449.522L654.471 449.53L522.987 385.76L654.471 321.989L785.955 385.76Z" stroke="#C59CFF" stroke-opacity="0.01" stroke-width="2" stroke-miterlimit="10"/>
<path d="M785.954 385.759L785.954 513.285L654.47 577.048L654.47 449.522L785.954 385.759Z" stroke="#C59CFF" stroke-opacity="0.01" stroke-width="2" stroke-miterlimit="10"/>
<path d="M654.471 449.53L654.471 577.048L522.987 513.285L522.987 385.759L654.471 449.53Z" stroke="#C59CFF" stroke-opacity="0.01" stroke-width="2" stroke-miterlimit="10"/>
<path d="M654.471 577.055L654.471 704.581L522.987 640.818L522.987 513.292L654.471 577.055Z" stroke="#C59CFF" stroke-opacity="0.01" stroke-width="2" stroke-miterlimit="10"/>
<path d="M265.957 385.751L134.473 449.514L134.473 449.522L2.9888 385.751L134.473 321.981L265.957 385.751Z" stroke="#C59CFF" stroke-opacity="0.01" stroke-width="2" stroke-miterlimit="10"/>
<path d="M265.96 385.751L265.96 513.277L134.476 577.039L134.476 449.514L265.96 385.751Z" stroke="#C59CFF" stroke-opacity="0.01" stroke-width="2" stroke-miterlimit="10"/>
<path d="M134.473 449.521L134.473 577.039L2.98879 513.277L2.9888 385.751L134.473 449.521Z" stroke="#C59CFF" stroke-opacity="0.01" stroke-width="2" stroke-miterlimit="10"/>
<path d="M134.473 577.047L134.473 704.573L2.98878 640.81L2.98879 513.284L134.473 577.047Z" stroke="#C59CFF" stroke-opacity="0.01" stroke-width="2" stroke-miterlimit="10"/>
<path d="M1305.97 385.76L1174.49 449.522L1174.49 449.53L1043 385.76L1174.49 321.989L1305.97 385.76Z" stroke="#C59CFF" stroke-opacity="0.01" stroke-width="2" stroke-miterlimit="10"/>
<path d="M1305.97 385.759L1305.97 513.285L1174.49 577.048L1174.49 449.522L1305.97 385.759Z" stroke="#C59CFF" stroke-opacity="0.01" stroke-width="2" stroke-miterlimit="10"/>
<path d="M1174.49 449.53L1174.49 577.048L1043 513.285L1043 385.759L1174.49 449.53Z" stroke="#C59CFF" stroke-opacity="0.01" stroke-width="2" stroke-miterlimit="10"/>
<path d="M1174.49 577.055L1174.49 704.581L1043 640.818L1043 513.292L1174.49 577.055Z" stroke="#C59CFF" stroke-opacity="0.01" stroke-width="2" stroke-miterlimit="10"/>
<path d="M1042.44 385.76L910.956 449.522L910.956 449.53L779.472 385.76L910.956 321.989L1042.44 385.76Z" stroke="#C59CFF" stroke-opacity="0.01" stroke-width="2" stroke-miterlimit="10"/>
<path d="M1042.44 385.759L1042.44 513.285L910.956 577.048L910.956 449.522L1042.44 385.759Z" stroke="#C59CFF" stroke-opacity="0.01" stroke-width="2" stroke-miterlimit="10"/>
<path d="M910.956 449.53L910.956 577.048L779.471 513.285L779.471 385.759L910.956 449.53Z" stroke="#C59CFF" stroke-opacity="0.01" stroke-width="2" stroke-miterlimit="10"/>
<path d="M910.956 577.055L910.956 704.581L779.471 640.818L779.471 513.292L910.956 577.055Z" stroke="#C59CFF" stroke-opacity="0.01" stroke-width="2" stroke-miterlimit="10"/>
<path d="M1175.96 65.7392L1044.47 129.502L1044.47 129.51L912.99 65.7391L1044.47 1.96876L1175.96 65.7392Z" stroke="#C59CFF" stroke-opacity="0.01" stroke-width="2" stroke-miterlimit="10"/>
<path d="M1175.96 65.7393L1175.96 193.265L1044.47 257.028L1044.47 129.502L1175.96 65.7393Z" stroke="#C59CFF" stroke-opacity="0.01" stroke-width="2" stroke-miterlimit="10"/>
<path d="M1044.47 129.51L1044.47 257.028L912.99 193.265L912.99 65.7393L1044.47 129.51Z" stroke="#C59CFF" stroke-opacity="0.01" stroke-width="2" stroke-miterlimit="10"/>
<path d="M1044.47 257.035L1044.47 384.561L912.99 320.798L912.99 193.272L1044.47 257.035Z" stroke="#C59CFF" stroke-opacity="0.01" stroke-width="2" stroke-miterlimit="10"/>
<path d="M915.957 65.7392L784.473 129.502L784.473 129.51L652.989 65.7391L784.473 1.96876L915.957 65.7392Z" stroke="#C59CFF" stroke-opacity="0.01" stroke-width="2" stroke-miterlimit="10"/>
<path d="M915.96 65.7393L915.96 193.265L784.476 257.028L784.476 129.502L915.96 65.7393Z" stroke="#C59CFF" stroke-opacity="0.01" stroke-width="2" stroke-miterlimit="10"/>
<path d="M784.474 129.51L784.474 257.028L652.99 193.265L652.99 65.7393L784.474 129.51Z" stroke="#C59CFF" stroke-opacity="0.01" stroke-width="2" stroke-miterlimit="10"/>
<path d="M784.474 257.035L784.474 384.561L652.99 320.798L652.99 193.272L784.474 257.035Z" stroke="#C59CFF" stroke-opacity="0.01" stroke-width="2" stroke-miterlimit="10"/>
<path d="M652.44 65.7313L520.956 129.494L520.956 129.502L389.472 65.7313L520.956 1.96095L652.44 65.7313Z" stroke="#C59CFF" stroke-opacity="0.01" stroke-width="2" stroke-miterlimit="10"/>
<path d="M652.441 65.7315L652.441 193.257L520.957 257.02L520.957 129.494L652.441 65.7315Z" stroke="#C59CFF" stroke-opacity="0.01" stroke-width="2" stroke-miterlimit="10"/>
<path d="M520.956 129.502L520.956 257.02L389.472 193.257L389.472 65.7314L520.956 129.502Z" stroke="#C59CFF" stroke-opacity="0.01" stroke-width="2" stroke-miterlimit="10"/>
<path d="M520.956 257.027L520.956 384.553L389.472 320.79L389.472 193.265L520.956 257.027Z" stroke="#C59CFF" stroke-opacity="0.01" stroke-width="2" stroke-miterlimit="10"/>
<path d="M392.444 65.7313L260.96 129.494L260.96 129.502L129.476 65.7313L260.96 1.96095L392.444 65.7313Z" stroke="#C59CFF" stroke-opacity="0.01" stroke-width="2" stroke-miterlimit="10"/>
<path d="M392.445 65.7315L392.445 193.257L260.961 257.02L260.961 129.494L392.445 65.7315Z" stroke="#C59CFF" stroke-opacity="0.01" stroke-width="2" stroke-miterlimit="10"/>
<path d="M260.96 129.502L260.96 257.02L129.476 193.257L129.476 65.7314L260.96 129.502Z" stroke="#C59CFF" stroke-opacity="0.01" stroke-width="2" stroke-miterlimit="10"/>
<path d="M260.96 257.027L260.96 384.553L129.476 320.79L129.476 193.265L260.96 257.027Z" stroke="#C59CFF" stroke-opacity="0.01" stroke-width="2" stroke-miterlimit="10"/>
</svg>
