<svg width="35" height="35" viewBox="0 0 35 35" fill="none" xmlns="http://www.w3.org/2000/svg">
<path d="M26.5996 1.75C27.3728 1.75 28 2.37719 28 3.15039V19.6992C27.1789 19.4089 26.2955 19.25 25.375 19.25C24.2158 19.25 23.116 19.5024 22.125 19.9521C21.9655 19.8204 21.7842 19.7142 21.5898 19.6445L18.4961 18.4404C18.4862 18.4366 17.9037 18.2111 17.6768 17.9883C17.5298 17.8434 17.5397 17.5025 17.6699 17.0664C17.8013 16.63 19.3865 14.8589 19.3867 13.25C19.3867 10.765 17.7498 8.75 15.7324 8.75C13.7172 8.75005 12.082 10.7657 12.082 13.25C12.0823 14.792 13.4956 16.6294 13.6699 16.9619C13.8439 17.297 13.8013 17.8047 13.665 17.959C13.4585 18.1907 12.7012 18.4229 12.7012 18.4229L9.91309 19.6631C9.26139 19.8969 8.75 20.5101 8.75 21.2031V21.5312C8.75 22.2872 9.36387 22.75 10.1191 22.75H18.8262C17.9885 24.0013 17.5 25.5061 17.5 27.125C17.5 28.3825 17.7961 29.5705 18.3203 30.625H4.90039C4.12719 30.625 3.5 29.9978 3.5 29.2246V25.375H6.125V23.625H3.5V17.5H6.125V15.75H3.5V9.625H6.125V7.875H3.5V3.15039C3.5 2.37719 4.12719 1.75 4.90039 1.75H26.5996Z" fill="#6D31B2"/>
<circle cx="25.375" cy="27.125" r="6.125" fill="#E3D5FB"/>
<path d="M26.6799 29.9251C26.6799 30.3117 26.3663 30.6253 25.9797 30.6253H24.7551C24.3685 30.6253 24.0549 30.3117 24.0549 29.9251V27.1253H22.7853C22.4185 27.1253 22.2144 26.7008 22.4435 26.4144L25.0334 23.1771C25.2086 22.9583 25.5419 22.9581 25.717 23.1771L28.3049 26.4144C28.5337 26.7008 28.3296 27.125 27.9631 27.1253H26.6799V29.9251Z" fill="white"/>
</svg>
