<svg width="35" height="35" viewBox="0 0 35 35" fill="none" xmlns="http://www.w3.org/2000/svg">
<path fill-rule="evenodd" clip-rule="evenodd" d="M17.3738 1.75L20.0733 3.06243L21.1876 3.64266C21.5807 3.84096 21.9407 4.00236 22.5894 4.24694L23.3512 4.52546C24.3539 4.89603 25.0599 5.01467 25.3518 5.05165L25.4461 5.06248L25.5985 5.06937L25.7264 5.07797L30.625 5.46955V20.476C30.625 27.6638 20.1563 33.25 17.5 33.25C14.4196 33.25 4.6304 27.5075 4.3799 20.7402L4.375 20.476V5.44631L7.88667 5.20233C8.34566 5.16728 8.77366 5.13254 9.11355 5.10127L9.46189 5.06558C9.71137 5.03182 10.5378 4.89878 11.841 4.48501L12.2373 4.33808C13.2015 3.97013 13.9611 3.60392 14.398 3.37927L14.8106 3.15796L17.3738 1.75ZM17.4484 4.39894L16.0657 5.14656L15.7884 5.29923C15.6768 5.35861 15.5455 5.4265 15.3923 5.50303L14.8912 5.74598C14.3121 6.01836 13.6761 6.28904 12.9947 6.54462C12.8169 6.61129 12.6377 6.67629 12.457 6.73947C11.6755 6.98526 10.9478 7.17178 10.3135 7.29945L10.0475 7.35056C9.7544 7.4041 9.54287 7.43428 9.41613 7.4485L9.31778 7.45768L6.5625 7.65857V20.4978L6.56769 20.7301C6.67825 23.2037 8.5466 25.554 11.466 27.7557C13.7023 29.4422 16.3699 30.8604 17.5 30.8604C18.5926 30.8604 21.2669 29.4322 23.4978 27.7582C26.4414 25.5494 28.3211 23.2053 28.4323 20.7302L28.4375 20.4978V7.66828L25.7945 7.45962L25.6567 7.45419L25.5428 7.44674L25.2831 7.42022C25.1881 7.40847 25.0847 7.39367 24.973 7.37545C24.3852 7.27949 23.7147 7.11339 22.9714 6.86054L22.1952 6.58904L21.6493 6.38581C21.1141 6.17898 20.6186 5.96467 20.1665 5.74968L19.701 5.52046L19.369 5.34628L19.2828 5.29903L19.0999 5.19352L18.9362 5.1049L17.4484 4.39894Z" fill="#E3D5FB"/>
<path d="M18.1856 6.68567C18.1856 6.68567 19.6463 7.5806 22.0499 8.39172C24.2837 9.2046 25.6573 9.20422 25.6573 9.20422L26.6876 9.28528V20.4982C26.6871 24.643 18.4433 29.1105 17.5001 29.1105C16.4693 29.1105 8.31298 24.643 8.31256 20.4982V9.28528L9.4278 9.20422C9.4278 9.20422 10.7165 9.12322 13.0352 8.39172C15.3539 7.58061 16.8985 6.68567 16.8985 6.68567L17.5001 6.36047L18.1856 6.68567ZM16.6407 19.1984L13.8936 16.8419L12.6055 18.3859L16.8985 22.1232L23.338 14.4855L21.793 13.1046L16.6407 19.1984Z" fill="#6D31B2"/>
</svg>
